<mxfile host="app.diagrams.net" agent="Mozilla/5.0 (Windows NT 10.0; Win64; x64) AppleWebKit/537.36 (KHTML, like Gecko) Chrome/134.0.0.0 Safari/537.36" version="26.1.0" pages="4">
  <diagram name="Página-1" id="NRZgVOl3C8cjjpyoILGp">
    <mxGraphModel dx="1105" dy="586" grid="1" gridSize="10" guides="1" tooltips="1" connect="1" arrows="1" fold="1" page="1" pageScale="1" pageWidth="827" pageHeight="1169" math="0" shadow="0">
      <root>
        <mxCell id="0" />
        <mxCell id="1" parent="0" />
        <mxCell id="qwNdu5d9fPo_TeuTvTDO-6" style="edgeStyle=orthogonalEdgeStyle;rounded=0;orthogonalLoop=1;jettySize=auto;html=1;exitX=1;exitY=1;exitDx=0;exitDy=0;entryX=1;entryY=1;entryDx=0;entryDy=0;" parent="1" edge="1">
          <mxGeometry relative="1" as="geometry">
            <mxPoint x="450" y="120" as="targetPoint" />
            <mxPoint x="450" y="120" as="sourcePoint" />
          </mxGeometry>
        </mxCell>
        <mxCell id="qwNdu5d9fPo_TeuTvTDO-8" value="FAZER RESERVA" style="ellipse;whiteSpace=wrap;html=1;" parent="1" vertex="1">
          <mxGeometry x="230" y="20" width="180" height="70" as="geometry" />
        </mxCell>
        <mxCell id="qwNdu5d9fPo_TeuTvTDO-16" value="CANCELAR RESERVA" style="ellipse;whiteSpace=wrap;html=1;" parent="1" vertex="1">
          <mxGeometry x="235" y="190" width="170" height="70" as="geometry" />
        </mxCell>
        <mxCell id="qwNdu5d9fPo_TeuTvTDO-39" style="edgeStyle=orthogonalEdgeStyle;rounded=0;orthogonalLoop=1;jettySize=auto;html=1;exitX=0.5;exitY=0;exitDx=0;exitDy=0;exitPerimeter=0;entryX=0;entryY=0.5;entryDx=0;entryDy=0;" parent="1" source="qwNdu5d9fPo_TeuTvTDO-23" target="qwNdu5d9fPo_TeuTvTDO-8" edge="1">
          <mxGeometry relative="1" as="geometry" />
        </mxCell>
        <mxCell id="qwNdu5d9fPo_TeuTvTDO-40" style="edgeStyle=orthogonalEdgeStyle;rounded=0;orthogonalLoop=1;jettySize=auto;html=1;exitX=1;exitY=0.3333333333333333;exitDx=0;exitDy=0;exitPerimeter=0;entryX=0;entryY=0.5;entryDx=0;entryDy=0;" parent="1" source="qwNdu5d9fPo_TeuTvTDO-23" target="qwNdu5d9fPo_TeuTvTDO-16" edge="1">
          <mxGeometry relative="1" as="geometry">
            <mxPoint x="290" y="169.9411764705883" as="targetPoint" />
          </mxGeometry>
        </mxCell>
        <mxCell id="qwNdu5d9fPo_TeuTvTDO-23" value="Actor" style="shape=umlActor;verticalLabelPosition=bottom;verticalAlign=top;html=1;outlineConnect=0;rotation=0;" parent="1" vertex="1">
          <mxGeometry x="80" y="120" width="90" height="150" as="geometry" />
        </mxCell>
      </root>
    </mxGraphModel>
  </diagram>
  <diagram id="QuJQxbRFROFayXlvImkB" name="ex.dediagrama">
    <mxGraphModel dx="1651" dy="857" grid="1" gridSize="10" guides="1" tooltips="1" connect="1" arrows="1" fold="1" page="1" pageScale="1" pageWidth="827" pageHeight="1169" math="0" shadow="0">
      <root>
        <mxCell id="0" />
        <mxCell id="1" parent="0" />
        <mxCell id="Tr6EJqdKemsiKoFotpVO-5" value="" style="rounded=0;whiteSpace=wrap;html=1;direction=south;fillColor=#f5f5f5;strokeColor=#666666;fontColor=#333333;" parent="1" vertex="1">
          <mxGeometry x="120" y="80" width="590" height="900" as="geometry" />
        </mxCell>
        <mxCell id="Tr6EJqdKemsiKoFotpVO-7" value="DEPOSITAR" style="ellipse;whiteSpace=wrap;html=1;fillColor=#dae8fc;strokeColor=#6c8ebf;" parent="1" vertex="1">
          <mxGeometry x="339" y="200" width="150" height="70" as="geometry" />
        </mxCell>
        <mxCell id="Tr6EJqdKemsiKoFotpVO-8" value="SACAR" style="ellipse;whiteSpace=wrap;html=1;fillColor=#dae8fc;strokeColor=#6c8ebf;" parent="1" vertex="1">
          <mxGeometry x="340" y="280" width="150" height="70" as="geometry" />
        </mxCell>
        <mxCell id="Tr6EJqdKemsiKoFotpVO-9" value="TRANSFERIR" style="ellipse;whiteSpace=wrap;html=1;fillColor=#dae8fc;strokeColor=#6c8ebf;" parent="1" vertex="1">
          <mxGeometry x="339" y="370" width="150" height="70" as="geometry" />
        </mxCell>
        <mxCell id="Tr6EJqdKemsiKoFotpVO-10" value="CLIENTE" style="shape=umlActor;verticalLabelPosition=bottom;verticalAlign=top;html=1;outlineConnect=0;fillColor=#d5e8d4;strokeColor=#82b366;" parent="1" vertex="1">
          <mxGeometry x="40" y="210" width="50" height="110" as="geometry" />
        </mxCell>
        <mxCell id="Tr6EJqdKemsiKoFotpVO-6" value="CHECAR SALDO" style="ellipse;whiteSpace=wrap;html=1;fillColor=#dae8fc;strokeColor=#6c8ebf;" parent="1" vertex="1">
          <mxGeometry x="339" y="110" width="150" height="70" as="geometry" />
        </mxCell>
        <mxCell id="Tr6EJqdKemsiKoFotpVO-19" value="BANCO" style="shape=umlActor;verticalLabelPosition=bottom;verticalAlign=top;html=1;outlineConnect=0;fillColor=#f8cecc;strokeColor=#b85450;" parent="1" vertex="1">
          <mxGeometry x="740" y="210" width="50" height="110" as="geometry" />
        </mxCell>
        <mxCell id="Tr6EJqdKemsiKoFotpVO-21" value="MANUTENÇÃO" style="ellipse;whiteSpace=wrap;html=1;fillColor=#dae8fc;strokeColor=#6c8ebf;" parent="1" vertex="1">
          <mxGeometry x="339" y="580" width="150" height="70" as="geometry" />
        </mxCell>
        <mxCell id="Tr6EJqdKemsiKoFotpVO-22" value="REPARO" style="ellipse;whiteSpace=wrap;html=1;fillColor=#dae8fc;strokeColor=#6c8ebf;" parent="1" vertex="1">
          <mxGeometry x="339" y="670" width="150" height="70" as="geometry" />
        </mxCell>
        <mxCell id="Tr6EJqdKemsiKoFotpVO-23" value="TÉCNICO" style="shape=umlActor;verticalLabelPosition=bottom;verticalAlign=top;html=1;outlineConnect=0;fillColor=#dae8fc;strokeColor=#6c8ebf;" parent="1" vertex="1">
          <mxGeometry x="50" y="610" width="50" height="110" as="geometry" />
        </mxCell>
        <mxCell id="HLNyt8dlvl5x3cQmuRl5-5" value="" style="endArrow=none;html=1;rounded=0;" edge="1" parent="1">
          <mxGeometry width="50" height="50" relative="1" as="geometry">
            <mxPoint x="330" y="730" as="sourcePoint" />
            <mxPoint x="310" y="620" as="targetPoint" />
            <Array as="points">
              <mxPoint x="90" y="680" />
            </Array>
          </mxGeometry>
        </mxCell>
        <mxCell id="HLNyt8dlvl5x3cQmuRl5-6" value="" style="endArrow=none;html=1;rounded=0;entryX=0.089;entryY=0.661;entryDx=0;entryDy=0;entryPerimeter=0;" edge="1" parent="1" target="Tr6EJqdKemsiKoFotpVO-5">
          <mxGeometry width="50" height="50" relative="1" as="geometry">
            <mxPoint x="300" y="250" as="sourcePoint" />
            <mxPoint x="530" y="510" as="targetPoint" />
            <Array as="points">
              <mxPoint x="110" y="280" />
            </Array>
          </mxGeometry>
        </mxCell>
        <mxCell id="HLNyt8dlvl5x3cQmuRl5-7" value="" style="endArrow=none;html=1;rounded=0;" edge="1" parent="1">
          <mxGeometry width="50" height="50" relative="1" as="geometry">
            <mxPoint x="310" y="320" as="sourcePoint" />
            <mxPoint x="300" y="400" as="targetPoint" />
            <Array as="points">
              <mxPoint x="110" y="280" />
            </Array>
          </mxGeometry>
        </mxCell>
        <mxCell id="HLNyt8dlvl5x3cQmuRl5-11" value="" style="endArrow=none;html=1;rounded=0;" edge="1" parent="1">
          <mxGeometry width="50" height="50" relative="1" as="geometry">
            <mxPoint x="520" y="400" as="sourcePoint" />
            <mxPoint x="510" y="310" as="targetPoint" />
            <Array as="points">
              <mxPoint x="740" y="270" />
            </Array>
          </mxGeometry>
        </mxCell>
        <mxCell id="HLNyt8dlvl5x3cQmuRl5-12" value="" style="endArrow=none;html=1;rounded=0;" edge="1" parent="1">
          <mxGeometry width="50" height="50" relative="1" as="geometry">
            <mxPoint x="530" y="250" as="sourcePoint" />
            <mxPoint x="530" y="160" as="targetPoint" />
            <Array as="points">
              <mxPoint x="740" y="270" />
            </Array>
          </mxGeometry>
        </mxCell>
        <mxCell id="zZwmB8_GLPGxbdHFfSVL-1" value="EXEMPLO DE DIAGRAMA DE CASO DE USO" style="rounded=0;whiteSpace=wrap;html=1;" vertex="1" parent="1">
          <mxGeometry x="230" y="70" width="390" height="30" as="geometry" />
        </mxCell>
      </root>
    </mxGraphModel>
  </diagram>
  <diagram id="oChSvFo8GuXUbPZUIg0g" name="ex.casodeuso">
    <mxGraphModel dx="1651" dy="857" grid="1" gridSize="10" guides="1" tooltips="1" connect="1" arrows="1" fold="1" page="1" pageScale="1" pageWidth="827" pageHeight="1169" background="none" math="0" shadow="0">
      <root>
        <mxCell id="0" />
        <mxCell id="1" parent="0" />
        <mxCell id="iuLTxedcwstDW7Arj6xw-2" value="" style="rounded=0;whiteSpace=wrap;html=1;labelBackgroundColor=none;fillColor=#f5f5f5;fontColor=#333333;strokeColor=#666666;" vertex="1" parent="1">
          <mxGeometry x="89" y="30" width="650" height="720" as="geometry" />
        </mxCell>
        <mxCell id="U1SpyC3rxzSheMR1uUHy-1" value="FORMA DE PAGAMENTO" style="ellipse;whiteSpace=wrap;html=1;labelBackgroundColor=none;" vertex="1" parent="1">
          <mxGeometry x="334" y="220" width="160" height="70" as="geometry" />
        </mxCell>
        <mxCell id="U1SpyC3rxzSheMR1uUHy-2" value="PREÇO / HOSPEDAGEM" style="ellipse;whiteSpace=wrap;html=1;labelBackgroundColor=none;" vertex="1" parent="1">
          <mxGeometry x="334" y="140" width="160" height="70" as="geometry" />
        </mxCell>
        <mxCell id="U1SpyC3rxzSheMR1uUHy-3" value="CADASTRO" style="ellipse;whiteSpace=wrap;html=1;labelBackgroundColor=none;" vertex="1" parent="1">
          <mxGeometry x="334" y="60" width="160" height="70" as="geometry" />
        </mxCell>
        <mxCell id="U1SpyC3rxzSheMR1uUHy-5" value="HOSPEDE" style="shape=umlActor;verticalLabelPosition=bottom;verticalAlign=top;html=1;outlineConnect=0;labelBackgroundColor=none;fillColor=#ffe6cc;strokeColor=#d79b00;" vertex="1" parent="1">
          <mxGeometry x="10" y="250" width="70" height="120" as="geometry" />
        </mxCell>
        <mxCell id="U1SpyC3rxzSheMR1uUHy-6" value="" style="endArrow=none;html=1;rounded=0;labelBackgroundColor=none;fontColor=default;" edge="1" parent="1">
          <mxGeometry width="50" height="50" relative="1" as="geometry">
            <mxPoint x="320" y="90" as="sourcePoint" />
            <mxPoint x="320" y="90" as="targetPoint" />
            <Array as="points">
              <mxPoint x="80" y="320" />
            </Array>
          </mxGeometry>
        </mxCell>
        <mxCell id="iuLTxedcwstDW7Arj6xw-1" value="" style="endArrow=none;html=1;rounded=0;labelBackgroundColor=none;fontColor=default;" edge="1" parent="1">
          <mxGeometry width="50" height="50" relative="1" as="geometry">
            <mxPoint x="310" y="330" as="sourcePoint" />
            <mxPoint x="320" y="170" as="targetPoint" />
            <Array as="points">
              <mxPoint x="80" y="320" />
            </Array>
          </mxGeometry>
        </mxCell>
        <mxCell id="iuLTxedcwstDW7Arj6xw-4" value="RECEPÇÃO" style="shape=umlActor;verticalLabelPosition=bottom;verticalAlign=top;html=1;outlineConnect=0;labelBackgroundColor=none;fillColor=#dae8fc;strokeColor=#6c8ebf;" vertex="1" parent="1">
          <mxGeometry x="750" y="250" width="50" height="120" as="geometry" />
        </mxCell>
        <mxCell id="usyPnWL2PSzT4leq6cu--6" value="" style="endArrow=none;html=1;rounded=0;labelBackgroundColor=none;fontColor=default;" edge="1" parent="1">
          <mxGeometry width="50" height="50" relative="1" as="geometry">
            <mxPoint x="510" y="180" as="sourcePoint" />
            <mxPoint x="510" y="330" as="targetPoint" />
            <Array as="points">
              <mxPoint x="760" y="320" />
            </Array>
          </mxGeometry>
        </mxCell>
        <mxCell id="usyPnWL2PSzT4leq6cu--7" value="CHECK-IN / CHECK-OUT" style="ellipse;whiteSpace=wrap;html=1;labelBackgroundColor=none;" vertex="1" parent="1">
          <mxGeometry x="334" y="300" width="160" height="70" as="geometry" />
        </mxCell>
        <mxCell id="usyPnWL2PSzT4leq6cu--8" value="GERENCIAMENTO&amp;nbsp;&lt;div&gt;DE HOSPEDES&lt;/div&gt;" style="ellipse;whiteSpace=wrap;html=1;labelBackgroundColor=none;" vertex="1" parent="1">
          <mxGeometry x="334" y="380" width="160" height="70" as="geometry" />
        </mxCell>
        <mxCell id="usyPnWL2PSzT4leq6cu--9" value="" style="endArrow=none;html=1;rounded=0;labelBackgroundColor=none;fontColor=default;" edge="1" parent="1">
          <mxGeometry width="50" height="50" relative="1" as="geometry">
            <mxPoint x="80" y="320" as="sourcePoint" />
            <mxPoint x="300" y="260" as="targetPoint" />
          </mxGeometry>
        </mxCell>
        <mxCell id="usyPnWL2PSzT4leq6cu--10" value="" style="endArrow=none;html=1;rounded=0;labelBackgroundColor=none;fontColor=default;" edge="1" parent="1">
          <mxGeometry width="50" height="50" relative="1" as="geometry">
            <mxPoint x="520" y="260" as="sourcePoint" />
            <mxPoint x="760" y="320" as="targetPoint" />
          </mxGeometry>
        </mxCell>
        <mxCell id="usyPnWL2PSzT4leq6cu--19" value="GERENTE" style="shape=umlActor;verticalLabelPosition=bottom;verticalAlign=top;html=1;outlineConnect=0;labelBackgroundColor=none;fillColor=#d5e8d4;strokeColor=#82b366;" vertex="1" parent="1">
          <mxGeometry x="20" y="475" width="60" height="110" as="geometry" />
        </mxCell>
        <mxCell id="usyPnWL2PSzT4leq6cu--20" value="SEGURANÇA" style="shape=umlActor;verticalLabelPosition=bottom;verticalAlign=top;html=1;outlineConnect=0;labelBackgroundColor=none;fillColor=#e1d5e7;strokeColor=#9673a6;" vertex="1" parent="1">
          <mxGeometry x="755" y="600" width="50" height="110" as="geometry" />
        </mxCell>
        <mxCell id="usyPnWL2PSzT4leq6cu--22" value="" style="endArrow=none;html=1;rounded=0;labelBackgroundColor=none;fontColor=default;" edge="1" parent="1">
          <mxGeometry width="50" height="50" relative="1" as="geometry">
            <mxPoint x="760" y="320" as="sourcePoint" />
            <mxPoint x="500" y="410" as="targetPoint" />
          </mxGeometry>
        </mxCell>
        <mxCell id="usyPnWL2PSzT4leq6cu--23" value="" style="endArrow=none;html=1;rounded=0;labelBackgroundColor=none;fontColor=default;" edge="1" parent="1">
          <mxGeometry width="50" height="50" relative="1" as="geometry">
            <mxPoint x="520" y="120" as="sourcePoint" />
            <mxPoint x="760" y="320" as="targetPoint" />
          </mxGeometry>
        </mxCell>
        <mxCell id="usyPnWL2PSzT4leq6cu--27" value="GERENCIAMENTO DO&lt;div&gt;HOTEL&lt;/div&gt;" style="ellipse;whiteSpace=wrap;html=1;labelBackgroundColor=none;" vertex="1" parent="1">
          <mxGeometry x="334" y="540" width="160" height="70" as="geometry" />
        </mxCell>
        <mxCell id="usyPnWL2PSzT4leq6cu--28" value="" style="endArrow=none;html=1;rounded=0;labelBackgroundColor=none;fontColor=default;" edge="1" parent="1">
          <mxGeometry width="50" height="50" relative="1" as="geometry">
            <mxPoint x="499" y="585.77" as="sourcePoint" />
            <mxPoint x="755" y="637" as="targetPoint" />
          </mxGeometry>
        </mxCell>
        <mxCell id="usyPnWL2PSzT4leq6cu--29" value="" style="endArrow=none;html=1;rounded=0;" edge="1" parent="1">
          <mxGeometry width="50" height="50" relative="1" as="geometry">
            <mxPoint x="760" y="320" as="sourcePoint" />
            <mxPoint x="510" y="550" as="targetPoint" />
          </mxGeometry>
        </mxCell>
        <mxCell id="eN73-dQPJMFBVjMVTSSf-4" value="" style="endArrow=none;html=1;rounded=0;exitX=0.34;exitY=0.75;exitDx=0;exitDy=0;exitPerimeter=0;" edge="1" parent="1" source="iuLTxedcwstDW7Arj6xw-2">
          <mxGeometry width="50" height="50" relative="1" as="geometry">
            <mxPoint x="530" y="410" as="sourcePoint" />
            <mxPoint x="320" y="430" as="targetPoint" />
            <Array as="points">
              <mxPoint x="60" y="530" />
            </Array>
          </mxGeometry>
        </mxCell>
        <mxCell id="eN73-dQPJMFBVjMVTSSf-5" value="DIAGRAMA DE CASO DE USO (RESERVA DE HOSPEDAGEM)" style="rounded=0;whiteSpace=wrap;html=1;" vertex="1" parent="1">
          <mxGeometry x="200" y="10" width="440" height="30" as="geometry" />
        </mxCell>
      </root>
    </mxGraphModel>
  </diagram>
  <diagram id="0Plp9Hu8dz7dDJ8_NCqk" name="Página-4">
    <mxGraphModel dx="1313" dy="696" grid="1" gridSize="10" guides="1" tooltips="1" connect="1" arrows="1" fold="1" page="1" pageScale="1" pageWidth="827" pageHeight="1169" math="0" shadow="0">
      <root>
        <mxCell id="0" />
        <mxCell id="1" parent="0" />
        <mxCell id="SrtvOsMM_a6GWZTnshjg-29" value="USUÁRIO" style="swimlane;fontStyle=0;childLayout=stackLayout;horizontal=1;startSize=26;fillColor=none;horizontalStack=0;resizeParent=1;resizeParentMax=0;resizeLast=0;collapsible=1;marginBottom=0;whiteSpace=wrap;html=1;" vertex="1" parent="1">
          <mxGeometry x="60" y="40" width="220" height="104" as="geometry">
            <mxRectangle x="70" y="120" width="100" height="30" as="alternateBounds" />
          </mxGeometry>
        </mxCell>
        <mxCell id="SrtvOsMM_a6GWZTnshjg-30" value="CPF:" style="text;strokeColor=none;fillColor=none;align=left;verticalAlign=top;spacingLeft=4;spacingRight=4;overflow=hidden;rotatable=0;points=[[0,0.5],[1,0.5]];portConstraint=eastwest;whiteSpace=wrap;html=1;" vertex="1" parent="SrtvOsMM_a6GWZTnshjg-29">
          <mxGeometry y="26" width="220" height="26" as="geometry" />
        </mxCell>
        <mxCell id="SrtvOsMM_a6GWZTnshjg-31" value="NOME:" style="text;strokeColor=none;fillColor=none;align=left;verticalAlign=top;spacingLeft=4;spacingRight=4;overflow=hidden;rotatable=0;points=[[0,0.5],[1,0.5]];portConstraint=eastwest;whiteSpace=wrap;html=1;" vertex="1" parent="SrtvOsMM_a6GWZTnshjg-29">
          <mxGeometry y="52" width="220" height="26" as="geometry" />
        </mxCell>
        <mxCell id="SrtvOsMM_a6GWZTnshjg-32" value="TELEFONE:" style="text;strokeColor=none;fillColor=none;align=left;verticalAlign=top;spacingLeft=4;spacingRight=4;overflow=hidden;rotatable=0;points=[[0,0.5],[1,0.5]];portConstraint=eastwest;whiteSpace=wrap;html=1;" vertex="1" parent="SrtvOsMM_a6GWZTnshjg-29">
          <mxGeometry y="78" width="220" height="26" as="geometry" />
        </mxCell>
        <mxCell id="SrtvOsMM_a6GWZTnshjg-33" value="CRIAR CONTA:" style="text;strokeColor=none;fillColor=none;align=left;verticalAlign=top;spacingLeft=4;spacingRight=4;overflow=hidden;rotatable=0;points=[[0,0.5],[1,0.5]];portConstraint=eastwest;whiteSpace=wrap;html=1;" vertex="1" parent="1">
          <mxGeometry x="60" y="144" width="220" height="30" as="geometry" />
        </mxCell>
        <mxCell id="SrtvOsMM_a6GWZTnshjg-34" value="&lt;div&gt;&amp;nbsp;CASEC&lt;/div&gt;" style="swimlane;fontStyle=1;align=center;verticalAlign=top;childLayout=stackLayout;horizontal=1;startSize=26;horizontalStack=0;resizeParent=1;resizeParentMax=0;resizeLast=0;collapsible=1;marginBottom=0;whiteSpace=wrap;html=1;" vertex="1" parent="1">
          <mxGeometry x="370" y="40" width="210" height="86" as="geometry" />
        </mxCell>
        <mxCell id="SrtvOsMM_a6GWZTnshjg-35" value="ALUNO:" style="text;strokeColor=none;fillColor=none;align=left;verticalAlign=top;spacingLeft=4;spacingRight=4;overflow=hidden;rotatable=0;points=[[0,0.5],[1,0.5]];portConstraint=eastwest;whiteSpace=wrap;html=1;" vertex="1" parent="SrtvOsMM_a6GWZTnshjg-34">
          <mxGeometry y="26" width="210" height="26" as="geometry" />
        </mxCell>
        <mxCell id="SrtvOsMM_a6GWZTnshjg-36" value="" style="line;strokeWidth=1;fillColor=none;align=left;verticalAlign=middle;spacingTop=-1;spacingLeft=3;spacingRight=3;rotatable=0;labelPosition=right;points=[];portConstraint=eastwest;strokeColor=inherit;" vertex="1" parent="SrtvOsMM_a6GWZTnshjg-34">
          <mxGeometry y="52" width="210" height="8" as="geometry" />
        </mxCell>
        <mxCell id="SrtvOsMM_a6GWZTnshjg-37" value="SENHA:" style="text;strokeColor=none;fillColor=none;align=left;verticalAlign=top;spacingLeft=4;spacingRight=4;overflow=hidden;rotatable=0;points=[[0,0.5],[1,0.5]];portConstraint=eastwest;whiteSpace=wrap;html=1;" vertex="1" parent="SrtvOsMM_a6GWZTnshjg-34">
          <mxGeometry y="60" width="210" height="26" as="geometry" />
        </mxCell>
        <mxCell id="SrtvOsMM_a6GWZTnshjg-38" value="CINERD" style="swimlane;fontStyle=1;align=center;verticalAlign=top;childLayout=stackLayout;horizontal=1;startSize=26;horizontalStack=0;resizeParent=1;resizeParentMax=0;resizeLast=0;collapsible=1;marginBottom=0;whiteSpace=wrap;html=1;" vertex="1" parent="1">
          <mxGeometry x="60" y="203" width="231" height="86" as="geometry" />
        </mxCell>
        <mxCell id="SrtvOsMM_a6GWZTnshjg-39" value="+ field: type" style="text;strokeColor=none;fillColor=none;align=left;verticalAlign=top;spacingLeft=4;spacingRight=4;overflow=hidden;rotatable=0;points=[[0,0.5],[1,0.5]];portConstraint=eastwest;whiteSpace=wrap;html=1;" vertex="1" parent="SrtvOsMM_a6GWZTnshjg-38">
          <mxGeometry y="26" width="231" height="26" as="geometry" />
        </mxCell>
        <mxCell id="SrtvOsMM_a6GWZTnshjg-40" value="" style="line;strokeWidth=1;fillColor=none;align=left;verticalAlign=middle;spacingTop=-1;spacingLeft=3;spacingRight=3;rotatable=0;labelPosition=right;points=[];portConstraint=eastwest;strokeColor=inherit;" vertex="1" parent="SrtvOsMM_a6GWZTnshjg-38">
          <mxGeometry y="52" width="231" height="8" as="geometry" />
        </mxCell>
        <mxCell id="SrtvOsMM_a6GWZTnshjg-41" value="+ method(type): type" style="text;strokeColor=none;fillColor=none;align=left;verticalAlign=top;spacingLeft=4;spacingRight=4;overflow=hidden;rotatable=0;points=[[0,0.5],[1,0.5]];portConstraint=eastwest;whiteSpace=wrap;html=1;" vertex="1" parent="SrtvOsMM_a6GWZTnshjg-38">
          <mxGeometry y="60" width="231" height="26" as="geometry" />
        </mxCell>
      </root>
    </mxGraphModel>
  </diagram>
</mxfile>
